<svg width="62" height="63" viewBox="0 0 62 63" fill="none" xmlns="http://www.w3.org/2000/svg">
<path d="M17.7947 39.9648V60.6378C17.7947 61.6466 18.558 62.4644 19.4996 62.4644H26.2947C27.2363 62.4644 27.9997 61.6466 27.9997 60.6378V39.9648H17.7947Z" fill="#FFE500"/>
<path d="M1.99963 39.9648V61.13C1.98856 62.1507 2.7518 62.9879 3.70454 63.0001H10.4997C11.4524 62.9879 12.2156 62.1507 12.2046 61.13V39.9648H1.99963Z" fill="white"/>
<path d="M3.49994 39.9648V60.6378C3.49994 61.6466 4.26324 62.4644 5.20484 62.4644H24.7951C25.7367 62.4644 26.5 61.6466 26.5 60.6378V39.9648H3.49994Z" fill="#FFB800"/>
<path d="M1.99951 57.1055C4.76092 57.1055 6.9995 59.5039 6.9995 62.4625H3.70448C2.76287 62.4625 1.99957 61.6447 1.99957 60.6358V57.1055H1.99951Z" fill="#FFE500"/>
<path d="M27.9997 57.1055V60.6358C27.9997 61.6447 27.2364 62.4625 26.2947 62.4625H22.9997C22.9996 59.5039 25.2382 57.1055 27.9997 57.1055Z" fill="#FFE500"/>
<path d="M13.7063 39.9636H0.500153V34.2916C0.500153 33.8738 0.816266 33.5352 1.20621 33.5352H13.0002C13.3901 33.5352 13.7062 33.8738 13.7062 34.2916V39.9636H13.7063Z" fill="white"/>
<path d="M29.5015 39.9636H16.2953V34.2916C16.2953 33.8738 16.6115 33.5352 17.0014 33.5352H28.7954C29.1853 33.5352 29.5014 33.8738 29.5014 34.2916V39.9636H29.5015Z" fill="#FFE500"/>
<path d="M27.9996 39.9636H1.99951V34.2916C1.99951 33.8738 2.31563 33.5352 2.70557 33.5352H27.2935C27.6834 33.5352 27.9995 33.8738 27.9995 34.2916V39.9636H27.9996Z" fill="#FFE500"/>
<path d="M29.5001 40.4998H0.499982C0.367325 40.4999 0.240118 40.4435 0.146368 40.343C0.0525587 40.2426 -5.8545e-05 40.1063 4.88845e-08 39.9641V34.2922C0.000761769 33.5788 0.540294 33.0008 1.20604 33H28.794C29.4598 33.0008 29.9993 33.5789 30 34.2922V39.9641C30.0001 40.1063 29.9474 40.2426 29.8536 40.343C29.7599 40.4435 29.6327 40.5 29.5001 40.4998ZM1.00002 39.4285H29.0001V34.2922C29.0001 34.1702 28.9078 34.0714 28.794 34.0714H1.20604C1.09225 34.0714 1.00002 34.1702 0.999963 34.2922V39.4285H1.00002Z" fill="black"/>
<path d="M26.2954 63.0007H3.70549C2.48826 62.9992 1.50183 61.9423 1.50043 60.6381V39.9654C1.50037 39.8232 1.55299 39.687 1.64679 39.5865C1.7406 39.486 1.86781 39.4296 2.00041 39.4297H28.0004C28.1331 39.4296 28.2603 39.486 28.3541 39.5865C28.4479 39.687 28.5005 39.8233 28.5004 39.9654V60.6381C28.4991 61.9423 27.5126 62.9992 26.2954 63.0007ZM2.50045 40.5011V60.6381C2.50115 61.3509 3.04027 61.9285 3.70555 61.9293H26.2954C26.9607 61.9285 27.4998 61.3509 27.5005 60.6381V40.5011H2.50045Z" fill="black"/>
<path d="M7.00046 62.9968H3.70549C2.48826 62.9952 1.50183 61.9384 1.50043 60.6342V57.104C1.50037 56.9619 1.55299 56.8256 1.64679 56.7252C1.7406 56.6247 1.86781 56.5683 2.00041 56.5684C5.03657 56.5721 7.49698 59.2082 7.50044 62.4611C7.5005 62.6033 7.44788 62.7396 7.35407 62.84C7.26026 62.9404 7.13306 62.9969 7.00046 62.9968ZM2.50045 57.6695V60.6342C2.50115 61.347 3.04027 61.9246 3.70555 61.9254H6.47264C6.23616 59.6882 4.58844 57.9229 2.50045 57.6695Z" fill="black"/>
<path d="M26.2949 62.9968H23C22.8673 62.9969 22.7401 62.9405 22.6464 62.84C22.5526 62.7395 22.4999 62.6032 22.5 62.4611C22.5035 59.2082 24.9639 56.5721 28 56.5684C28.1327 56.5683 28.2599 56.6247 28.3536 56.7252C28.4475 56.8257 28.5001 56.962 28.5 57.104V60.6343C28.4985 61.9384 27.5121 62.9953 26.2949 62.9968ZM23.5278 61.9254H26.2949C26.9602 61.9247 27.4993 61.3471 27.5 60.6343V57.6696C25.4119 57.9229 23.7642 59.6883 23.5278 61.9254Z" fill="black"/>
<path d="M17.7473 48.5345H12.2522C11.2848 48.5333 10.5008 47.6934 10.4998 46.6569V45.856C10.4998 45.5601 10.7237 45.3203 10.9998 45.3203C11.2759 45.3203 11.4997 45.5602 11.4997 45.856V46.6569C11.5001 47.102 11.8368 47.4627 12.2522 47.4631H17.7473C18.1628 47.4627 18.4994 47.102 18.4998 46.6569V45.856C18.4998 45.5601 18.7237 45.3203 18.9998 45.3203C19.2759 45.3203 19.4997 45.5602 19.4997 45.856V46.6569C19.4986 47.6934 18.7147 48.5333 17.7473 48.5345Z" fill="black"/>
<path d="M49.7947 39.9648V60.6378C49.7947 61.6466 50.558 62.4644 51.4996 62.4644H58.2947C59.2363 62.4644 59.9997 61.6466 59.9997 60.6378V39.9648H49.7947Z" fill="#FFE500"/>
<path d="M33.9996 39.9648V61.13C33.9886 62.1507 34.7518 62.9879 35.7045 63.0001H42.4997C43.4524 62.9879 44.2156 62.1507 44.2046 61.13V39.9648H33.9996Z" fill="white"/>
<path d="M35.4999 39.9648V60.6378C35.4999 61.6466 36.2632 62.4644 37.2048 62.4644H56.7951C57.7367 62.4644 58.5 61.6466 58.5 60.6378V39.9648H35.4999Z" fill="#FFB800"/>
<path d="M33.9995 57.1055C36.7609 57.1055 38.9995 59.5039 38.9995 62.4625H35.7045C34.7629 62.4625 33.9996 61.6447 33.9996 60.6358V57.1055H33.9995Z" fill="#FFE500"/>
<path d="M59.9997 57.1055V60.6358C59.9997 61.6447 59.2364 62.4625 58.2947 62.4625H54.9997C54.9996 59.5039 57.2382 57.1055 59.9997 57.1055Z" fill="#FFE500"/>
<path d="M45.7063 39.9636H32.5002V34.2916C32.5002 33.8738 32.8163 33.5352 33.2062 33.5352H45.0002C45.3901 33.5352 45.7062 33.8738 45.7062 34.2916V39.9636H45.7063Z" fill="white"/>
<path d="M61.5015 39.9636H48.2953V34.2916C48.2953 33.8738 48.6115 33.5352 49.0014 33.5352H60.7954C61.1853 33.5352 61.5014 33.8738 61.5014 34.2916V39.9636H61.5015Z" fill="#FFE500"/>
<path d="M59.9996 39.9636H33.9995V34.2916C33.9995 33.8738 34.3156 33.5352 34.7056 33.5352H59.2935C59.6834 33.5352 59.9995 33.8738 59.9995 34.2916V39.9636H59.9996Z" fill="#FFE500"/>
<path d="M61.5001 40.4998H32.5C32.3673 40.4999 32.2401 40.4435 32.1464 40.343C32.0526 40.2426 31.9999 40.1063 32 39.9641V34.2922C32.0008 33.5788 32.5403 33.0008 33.206 33H60.794C61.4598 33.0008 61.9993 33.5789 62 34.2922V39.9641C62.0001 40.1063 61.9474 40.2426 61.8536 40.343C61.7599 40.4435 61.6327 40.5 61.5001 40.4998ZM33 39.4285H61.0001V34.2922C61.0001 34.1702 60.9078 34.0714 60.794 34.0714H33.206C33.0922 34.0714 33 34.1702 33 34.2922V39.4285H33Z" fill="black"/>
<path d="M58.2954 63.0007H35.7055C34.4883 62.9992 33.5018 61.9423 33.5004 60.6381V39.9654C33.5004 39.8232 33.553 39.687 33.6468 39.5865C33.7406 39.486 33.8678 39.4296 34.0004 39.4297H60.0004C60.1331 39.4296 60.2603 39.486 60.3541 39.5865C60.4479 39.687 60.5005 39.8233 60.5004 39.9654V60.6381C60.4991 61.9423 59.5126 62.9992 58.2954 63.0007ZM34.5004 40.5011V60.6381C34.5012 61.3509 35.0403 61.9285 35.7055 61.9293H58.2954C58.9607 61.9285 59.4998 61.3509 59.5005 60.6381V40.5011H34.5004Z" fill="black"/>
<path d="M39.0005 62.9968H35.7055C34.4883 62.9952 33.5018 61.9384 33.5004 60.6342V57.104C33.5004 56.9619 33.553 56.8256 33.6468 56.7252C33.7406 56.6247 33.8678 56.5683 34.0004 56.5684C37.0366 56.5721 39.497 59.2082 39.5004 62.4611C39.5005 62.6033 39.4479 62.7396 39.3541 62.84C39.2603 62.9404 39.1331 62.9969 39.0005 62.9968ZM34.5004 57.6695V60.6342C34.5012 61.347 35.0403 61.9246 35.7055 61.9254H38.4726C38.2362 59.6882 36.5884 57.9229 34.5004 57.6695Z" fill="black"/>
<path d="M58.2949 62.9968H55C54.8673 62.9969 54.7401 62.9405 54.6464 62.84C54.5526 62.7395 54.4999 62.6032 54.5 62.4611C54.5035 59.2082 56.9639 56.5721 60 56.5684C60.1327 56.5683 60.2599 56.6247 60.3536 56.7252C60.4475 56.8257 60.5001 56.962 60.5 57.104V60.6343C60.4985 61.9384 59.5121 62.9953 58.2949 62.9968ZM55.5278 61.9254H58.2949C58.9602 61.9247 59.4993 61.3471 59.5 60.6343V57.6696C57.4119 57.9229 55.7642 59.6883 55.5278 61.9254Z" fill="black"/>
<path d="M49.7473 48.5345H44.2522C43.2848 48.5333 42.5008 47.6934 42.4998 46.6569V45.856C42.4998 45.5601 42.7237 45.3203 42.9998 45.3203C43.2759 45.3203 43.4997 45.5602 43.4997 45.856V46.6569C43.5001 47.102 43.8368 47.4627 44.2522 47.4631H49.7473C50.1628 47.4627 50.4994 47.102 50.4998 46.6569V45.856C50.4998 45.5601 50.7237 45.3203 50.9998 45.3203C51.2759 45.3203 51.4997 45.5602 51.4997 45.856V46.6569C51.4986 47.6934 50.7147 48.5333 49.7473 48.5345Z" fill="black"/>
<path d="M17.7947 6.96484V27.6378C17.7947 28.6466 18.558 29.4644 19.4996 29.4644H26.2947C27.2363 29.4644 27.9997 28.6466 27.9997 27.6378V6.96484H17.7947Z" fill="#FFE500"/>
<path d="M1.99963 6.96484V28.13C1.98856 29.1507 2.7518 29.9879 3.70454 30.0001H10.4997C11.4524 29.9879 12.2156 29.1507 12.2046 28.13V6.96484H1.99963Z" fill="white"/>
<path d="M3.49994 6.96484V27.6378C3.49994 28.6466 4.26324 29.4644 5.20484 29.4644H24.7951C25.7367 29.4644 26.5 28.6466 26.5 27.6378V6.96484H3.49994Z" fill="#FFB800"/>
<path d="M1.99951 24.1055C4.76092 24.1055 6.9995 26.5039 6.9995 29.4625H3.70448C2.76287 29.4625 1.99957 28.6447 1.99957 27.6358V24.1055H1.99951Z" fill="#FFE500"/>
<path d="M27.9997 24.1055V27.6358C27.9997 28.6447 27.2364 29.4625 26.2947 29.4625H22.9997C22.9996 26.5039 25.2382 24.1055 27.9997 24.1055Z" fill="#FFE500"/>
<path d="M13.7063 6.96361H0.500153V1.29163C0.500153 0.873843 0.816266 0.535156 1.20621 0.535156H13.0002C13.3901 0.535156 13.7062 0.873843 13.7062 1.29163V6.96361H13.7063Z" fill="white"/>
<path d="M29.5015 6.96361H16.2953V1.29163C16.2953 0.873843 16.6115 0.535156 17.0014 0.535156H28.7954C29.1853 0.535156 29.5014 0.873843 29.5014 1.29163V6.96361H29.5015Z" fill="#FFE500"/>
<path d="M27.9996 6.96361H1.99951V1.29163C1.99951 0.873843 2.31563 0.535156 2.70557 0.535156H27.2935C27.6834 0.535156 27.9995 0.873843 27.9995 1.29163V6.96361H27.9996Z" fill="#FFE500"/>
<path d="M29.5001 7.49983H0.499982C0.367325 7.49989 0.240118 7.44351 0.146368 7.34301C0.0525587 7.24256 -5.8545e-05 7.10627 4.88845e-08 6.96414V1.29216C0.000761769 0.578812 0.540294 0.000753335 1.20604 0H28.794C29.4598 0.000816113 29.9993 0.578875 30 1.29216V6.96414C30.0001 7.10627 29.9474 7.24256 29.8536 7.34301C29.7599 7.44351 29.6327 7.49995 29.5001 7.49983ZM1.00002 6.42846H29.0001V1.29216C29.0001 1.17024 28.9078 1.07143 28.794 1.07137H1.20604C1.09225 1.07137 1.00002 1.17024 0.999963 1.29216V6.42846H1.00002Z" fill="black"/>
<path d="M26.2954 30.0007H3.70549C2.48826 29.9992 1.50183 28.9423 1.50043 27.6381V6.96537C1.50037 6.82324 1.55299 6.68695 1.64679 6.58651C1.7406 6.486 1.86781 6.42962 2.00041 6.42969H28.0004C28.1331 6.42962 28.2603 6.486 28.3541 6.58651C28.4479 6.68701 28.5005 6.8233 28.5004 6.96537V27.6381C28.4991 28.9423 27.5126 29.9992 26.2954 30.0007ZM2.50045 7.50106V27.6381C2.50115 28.3509 3.04027 28.9285 3.70555 28.9293H26.2954C26.9607 28.9285 27.4998 28.3509 27.5005 27.6381V7.50106H2.50045Z" fill="black"/>
<path d="M7.00046 29.9968H3.70549C2.48826 29.9952 1.50183 28.9384 1.50043 27.6342V24.104C1.50037 23.9619 1.55299 23.8256 1.64679 23.7252C1.7406 23.6247 1.86781 23.5683 2.00041 23.5684C5.03657 23.5721 7.49698 26.2082 7.50044 29.4611C7.5005 29.6033 7.44788 29.7396 7.35407 29.84C7.26026 29.9404 7.13306 29.9969 7.00046 29.9968ZM2.50045 24.6695V27.6342C2.50115 28.347 3.04027 28.9246 3.70555 28.9254H6.47264C6.23616 26.6882 4.58844 24.9229 2.50045 24.6695Z" fill="black"/>
<path d="M26.2949 29.9968H23C22.8673 29.9969 22.7401 29.9405 22.6464 29.84C22.5526 29.7395 22.4999 29.6032 22.5 29.4611C22.5035 26.2082 24.9639 23.5721 28 23.5684C28.1327 23.5683 28.2599 23.6247 28.3536 23.7252C28.4475 23.8257 28.5001 23.962 28.5 24.104V27.6343C28.4985 28.9384 27.5121 29.9953 26.2949 29.9968ZM23.5278 28.9254H26.2949C26.9602 28.9247 27.4993 28.3471 27.5 27.6343V24.6696C25.4119 24.9229 23.7642 26.6883 23.5278 28.9254Z" fill="black"/>
<path d="M17.7473 15.5345H12.2522C11.2848 15.5333 10.5008 14.6934 10.4998 13.6569V12.856C10.4998 12.5601 10.7237 12.3203 10.9998 12.3203C11.2759 12.3203 11.4997 12.5602 11.4997 12.856V13.6569C11.5001 14.102 11.8368 14.4627 12.2522 14.4631H17.7473C18.1628 14.4627 18.4994 14.102 18.4998 13.6569V12.856C18.4998 12.5601 18.7237 12.3203 18.9998 12.3203C19.2759 12.3203 19.4997 12.5602 19.4997 12.856V13.6569C19.4986 14.6934 18.7147 15.5333 17.7473 15.5345Z" fill="black"/>
<path d="M49.7947 6.96484V27.6378C49.7947 28.6466 50.558 29.4644 51.4996 29.4644H58.2947C59.2363 29.4644 59.9997 28.6466 59.9997 27.6378V6.96484H49.7947Z" fill="#FFE500"/>
<path d="M33.9996 6.96484V28.13C33.9886 29.1507 34.7518 29.9879 35.7045 30.0001H42.4997C43.4524 29.9879 44.2156 29.1507 44.2046 28.13V6.96484H33.9996Z" fill="white"/>
<path d="M35.4999 6.96484V27.6378C35.4999 28.6466 36.2632 29.4644 37.2048 29.4644H56.7951C57.7367 29.4644 58.5 28.6466 58.5 27.6378V6.96484H35.4999Z" fill="#FFB800"/>
<path d="M33.9995 24.1055C36.7609 24.1055 38.9995 26.5039 38.9995 29.4625H35.7045C34.7629 29.4625 33.9996 28.6447 33.9996 27.6358V24.1055H33.9995Z" fill="#FFE500"/>
<path d="M59.9997 24.1055V27.6358C59.9997 28.6447 59.2364 29.4625 58.2947 29.4625H54.9997C54.9996 26.5039 57.2382 24.1055 59.9997 24.1055Z" fill="#FFE500"/>
<path d="M45.7063 6.96361H32.5002V1.29163C32.5002 0.873843 32.8163 0.535156 33.2062 0.535156H45.0002C45.3901 0.535156 45.7062 0.873843 45.7062 1.29163V6.96361H45.7063Z" fill="white"/>
<path d="M61.5015 6.96361H48.2953V1.29163C48.2953 0.873843 48.6115 0.535156 49.0014 0.535156H60.7954C61.1853 0.535156 61.5014 0.873843 61.5014 1.29163V6.96361H61.5015Z" fill="#FFE500"/>
<path d="M59.9996 6.96361H33.9995V1.29163C33.9995 0.873843 34.3156 0.535156 34.7056 0.535156H59.2935C59.6834 0.535156 59.9995 0.873843 59.9995 1.29163V6.96361H59.9996Z" fill="#FFE500"/>
<path d="M61.5001 7.49983H32.5C32.3673 7.49989 32.2401 7.44351 32.1464 7.34301C32.0526 7.24256 31.9999 7.10627 32 6.96414V1.29216C32.0008 0.578812 32.5403 0.000753335 33.206 0H60.794C61.4598 0.000816113 61.9993 0.578875 62 1.29216V6.96414C62.0001 7.10627 61.9474 7.24256 61.8536 7.34301C61.7599 7.44351 61.6327 7.49995 61.5001 7.49983ZM33 6.42846H61.0001V1.29216C61.0001 1.17024 60.9078 1.07143 60.794 1.07137H33.206C33.0922 1.07137 33 1.17024 33 1.29216V6.42846H33Z" fill="black"/>
<path d="M58.2954 30.0007H35.7055C34.4883 29.9992 33.5018 28.9423 33.5004 27.6381V6.96537C33.5004 6.82324 33.553 6.68695 33.6468 6.58651C33.7406 6.486 33.8678 6.42962 34.0004 6.42969H60.0004C60.1331 6.42962 60.2603 6.486 60.3541 6.58651C60.4479 6.68701 60.5005 6.8233 60.5004 6.96537V27.6381C60.4991 28.9423 59.5126 29.9992 58.2954 30.0007ZM34.5004 7.50106V27.6381C34.5012 28.3509 35.0403 28.9285 35.7055 28.9293H58.2954C58.9607 28.9285 59.4998 28.3509 59.5005 27.6381V7.50106H34.5004Z" fill="black"/>
<path d="M39.0005 29.9968H35.7055C34.4883 29.9952 33.5018 28.9384 33.5004 27.6342V24.104C33.5004 23.9619 33.553 23.8256 33.6468 23.7252C33.7406 23.6247 33.8678 23.5683 34.0004 23.5684C37.0366 23.5721 39.497 26.2082 39.5004 29.4611C39.5005 29.6033 39.4479 29.7396 39.3541 29.84C39.2603 29.9404 39.1331 29.9969 39.0005 29.9968ZM34.5004 24.6695V27.6342C34.5012 28.347 35.0403 28.9246 35.7055 28.9254H38.4726C38.2362 26.6882 36.5884 24.9229 34.5004 24.6695Z" fill="black"/>
<path d="M58.2949 29.9968H55C54.8673 29.9969 54.7401 29.9405 54.6464 29.84C54.5526 29.7395 54.4999 29.6032 54.5 29.4611C54.5035 26.2082 56.9639 23.5721 60 23.5684C60.1327 23.5683 60.2599 23.6247 60.3536 23.7252C60.4475 23.8257 60.5001 23.962 60.5 24.104V27.6343C60.4985 28.9384 59.5121 29.9953 58.2949 29.9968ZM55.5278 28.9254H58.2949C58.9602 28.9247 59.4993 28.3471 59.5 27.6343V24.6696C57.4119 24.9229 55.7642 26.6883 55.5278 28.9254Z" fill="black"/>
<path d="M49.7473 15.5345H44.2522C43.2848 15.5333 42.5008 14.6934 42.4998 13.6569V12.856C42.4998 12.5601 42.7237 12.3203 42.9998 12.3203C43.2759 12.3203 43.4997 12.5602 43.4997 12.856V13.6569C43.5001 14.102 43.8368 14.4627 44.2522 14.4631H49.7473C50.1628 14.4627 50.4994 14.102 50.4998 13.6569V12.856C50.4998 12.5601 50.7237 12.3203 50.9998 12.3203C51.2759 12.3203 51.4997 12.5602 51.4997 12.856V13.6569C51.4986 14.6934 50.7147 15.5333 49.7473 15.5345Z" fill="black"/>
</svg>
